name Walk5.mot
datacolumns 19
datarows 20
range 2.04500000 2.06400000
endheader

                time	   L_ground_force_vx	   L_ground_force_vy	   L_ground_force_vz	   L_ground_force_px	   L_ground_force_py	   L_ground_force_pz	   R_ground_force_vx	   R_ground_force_vy	   R_ground_force_vz	   R_ground_force_px	   R_ground_force_py	   R_ground_force_pz	   L_ground_torque_x	   L_ground_torque_y	   L_ground_torque_z	   R_ground_torque_x	   R_ground_torque_y	   R_ground_torque_z	
          2.04500000	          0.00000000	          0.00000000	          0.00000000	          0.00000000	          0.00000000	          0.00000000	        -16.87200791	        636.15401027	        -40.55457818	          0.16611533	          0.00000000	          0.07324488	          0.00000000	          0.00000000	          0.00000000	          0.00000000	          8.29726452	          0.00000000	
          2.04600000	          0.00000000	          0.00000000	          0.00000000	          0.00000000	          0.00000000	          0.00000000	        -16.41280188	        635.54865101	        -40.47233577	          0.16629221	          0.00000000	          0.07325966	          0.00000000	          0.00000000	          0.00000000	          0.00000000	          8.25584439	          0.00000000	
          2.04700000	          0.00000000	          0.00000000	          0.00000000	          0.00000000	          0.00000000	          0.00000000	        -15.93966966	        635.02162664	        -40.42241934	          0.16657587	          0.00000000	          0.07325663	          0.00000000	          0.00000000	          0.00000000	          0.00000000	          8.20894471	          0.00000000	
          2.04800000	          0.00000000	          0.00000000	          0.00000000	          0.00000000	          0.00000000	          0.00000000	        -15.46144685	        634.59116797	        -40.40446509	          0.16695940	          0.00000000	          0.07323822	          0.00000000	          0.00000000	          0.00000000	          0.00000000	          8.15956438	          0.00000000	
          2.04900000	          0.00000000	          0.00000000	          0.00000000	          0.00000000	          0.00000000	          0.00000000	        -14.98466861	        634.27442038	        -40.40907505	          0.16738766	          0.00000000	          0.07323689	          0.00000000	          0.00000000	          0.00000000	          0.00000000	          8.11241465	          0.00000000	
          2.05000000	          0.00000000	          0.00000000	          0.00000000	          0.00000000	          0.00000000	          0.00000000	        -14.50638215	        634.07905423	        -40.42364050	          0.16781631	          0.00000000	          0.07327979	          0.00000000	          0.00000000	          0.00000000	          0.00000000	          8.07133895	          0.00000000	
          2.05100000	          0.00000000	          0.00000000	          0.00000000	          0.00000000	          0.00000000	          0.00000000	        -14.01531078	        633.98176032	        -40.44223857	          0.16823993	          0.00000000	          0.07335269	          0.00000000	          0.00000000	          0.00000000	          0.00000000	          8.03573881	          0.00000000	
          2.05200000	          0.00000000	          0.00000000	          0.00000000	          0.00000000	          0.00000000	          0.00000000	        -13.50498716	        633.93861887	        -40.46907018	          0.16866918	          0.00000000	          0.07341617	          0.00000000	          0.00000000	          0.00000000	          0.00000000	          7.99866513	          0.00000000	
          2.05300000	          0.00000000	          0.00000000	          0.00000000	          0.00000000	          0.00000000	          0.00000000	        -12.98186158	        633.91920503	        -40.51252438	          0.16911427	          0.00000000	          0.07344244	          0.00000000	          0.00000000	          0.00000000	          0.00000000	          7.95192286	          0.00000000	
          2.05400000	          0.00000000	          0.00000000	          0.00000000	          0.00000000	          0.00000000	          0.00000000	        -12.45464219	        633.90990706	        -40.57879257	          0.16957571	          0.00000000	          0.07342838	          0.00000000	          0.00000000	          0.00000000	          0.00000000	          7.89437784	          0.00000000	
          2.05500000	          0.00000000	          0.00000000	          0.00000000	          0.00000000	          0.00000000	          0.00000000	        -11.92386581	        633.88543450	        -40.66868628	          0.17002962	          0.00000000	          0.07338884	          0.00000000	          0.00000000	          0.00000000	          0.00000000	          7.83310141	          0.00000000	
          2.05600000	          0.00000000	          0.00000000	          0.00000000	          0.00000000	          0.00000000	          0.00000000	        -11.38433755	        633.80223459	        -40.77410501	          0.17044935	          0.00000000	          0.07334420	          0.00000000	          0.00000000	          0.00000000	          0.00000000	          7.77592331	          0.00000000	
          2.05700000	          0.00000000	          0.00000000	          0.00000000	          0.00000000	          0.00000000	          0.00000000	        -10.83601592	        633.63976835	        -40.87843613	          0.17083974	          0.00000000	          0.07331961	          0.00000000	          0.00000000	          0.00000000	          0.00000000	          7.72410557	          0.00000000	
          2.05800000	          0.00000000	          0.00000000	          0.00000000	          0.00000000	          0.00000000	          0.00000000	        -10.29187354	        633.44575232	        -40.96593668	          0.17122044	          0.00000000	          0.07334888	          0.00000000	          0.00000000	          0.00000000	          0.00000000	          7.67253123	          0.00000000	
          2.05900000	          0.00000000	          0.00000000	          0.00000000	          0.00000000	          0.00000000	          0.00000000	         -9.76879338	        633.31266949	        -41.03123028	          0.17159296	          0.00000000	          0.07345314	          0.00000000	          0.00000000	          0.00000000	          0.00000000	          7.61628064	          0.00000000	
          2.06000000	          0.00000000	          0.00000000	          0.00000000	          0.00000000	          0.00000000	          0.00000000	         -9.27098431	        633.29576676	        -41.08308838	          0.17194439	          0.00000000	          0.07360868	          0.00000000	          0.00000000	          0.00000000	          0.00000000	          7.55769894	          0.00000000	
          2.06100000	          0.00000000	          0.00000000	          0.00000000	          0.00000000	          0.00000000	          0.00000000	         -8.78679643	        633.37152214	        -41.14128223	          0.17226978	          0.00000000	          0.07375505	          0.00000000	          0.00000000	          0.00000000	          0.00000000	          7.50597988	          0.00000000	
          2.06200000	          0.00000000	          0.00000000	          0.00000000	          0.00000000	          0.00000000	          0.00000000	         -8.30213104	        633.47843116	        -41.22432218	          0.17258714	          0.00000000	          0.07384516	          0.00000000	          0.00000000	          0.00000000	          0.00000000	          7.46714523	          0.00000000	
          2.06300000	          0.00000000	          0.00000000	          0.00000000	          0.00000000	          0.00000000	          0.00000000	         -7.81532057	        633.56571630	        -41.34213244	          0.17293109	          0.00000000	          0.07386700	          0.00000000	          0.00000000	          0.00000000	          0.00000000	          7.43770443	          0.00000000	
          2.06400000	          0.00000000	          0.00000000	          0.00000000	          0.00000000	          0.00000000	          0.00000000	         -7.33911327	        633.60683566	        -41.49515631	          0.17332058	          0.00000000	          0.07382318	          0.00000000	          0.00000000	          0.00000000	          0.00000000	          7.40861006	          0.00000000	
